<svg xmlns="http://www.w3.org/2000/svg" viewBox="0 0 1000 1000" role="img" aria-label="DIGNITE">
  <rect width="1000" height="1000" rx="180" ry="180" fill="#322488"/>
  <!-- 圆形徽章：外环 + 内环 + 四角星(平头，竖向尖端触及内环)，DIGNITE 采用品牌字形(logo-文字品牌.svg)沿顶部弧线排布，中间字母 N 居顶居中（D、E 锚定不动，两侧字母各自等距）。fill/stroke=#FAD7D3 -->
  <g fill="none" stroke="#FAD7D3">
    <circle cx="500" cy="500" r="340" stroke-width="25"/>
    <circle cx="500" cy="500" r="225" stroke-width="16"/>
  </g>
  <path fill="#FAD7D3" fill-rule="nonzero" d="M494.20 281.48 L505.80 281.48 C502.32 412.59 554.92 497.16 637.30 492.91 L637.30 507.09 C554.92 502.84 502.32 587.41 505.80 718.52 L494.20 718.52 C497.68 587.41 445.08 502.84 362.70 507.09 L362.70 492.91 C445.08 497.16 497.68 412.59 494.20 281.48 Z"/>
  <g fill="#FAD7D3" fill-rule="evenodd">
    <g transform="translate(500,500) rotate(-70.451) translate(0,-254) scale(0.37) translate(-99.50,-170)"><g transform="translate(12,12)"><path d="M0,0L39.10,0C93.32,0.00 115.31,-0.37 139.31,14.15C148.79,19.88 175.00,39.64 175.00,79.00C175.00,118.36 148.79,138.12 139.31,143.85C115.31,158.37 93.32,158.00 39.10,158.00L0,158Z M34.00,17.60L37.10,17.60C89.56,17.60 100.48,17.96 114.20,26.13C120.24,29.72 140.50,44.67 140.50,79.00C140.50,113.33 120.24,128.28 114.20,131.87C100.48,140.04 89.56,140.40 37.10,140.40L34.00,140.40Z"/></g></g>
    <g transform="translate(500,500) rotate(-48.579) translate(0,-254) scale(0.37) translate(-234.50,-170)"><g transform="translate(218,12)"><path d="M0,0L33,0L33,158L0,158Z"/></g></g>
    <g transform="translate(500,500) rotate(-26.554) translate(0,-254) scale(0.37) translate(-373.45,-170)"><g transform="translate(288,8)"><path d="M170.94,23.50L156.75,38.98C153.86,36.96 151.09,34.39 148.16,32.28C138.92,25.59 128.40,20.90 117.18,18.76C95.23,14.58 69.23,17.55 52.70,33.89C44.69,41.81 38.22,53.53 35.89,64.58C34.52,71.08 34.33,78.02 34.52,84.64C34.68,89.94 34.84,95.29 35.95,100.49C38.93,114.54 48.01,129.29 59.60,137.83C70.43,145.82 83.56,148.30 96.75,148.31C105.56,148.32 114.45,148.07 122.99,145.67C129.82,143.75 136.16,140.28 142.50,137.50L142.50,96.00L109.00,96.00L109.00,79.00L175.00,79.00L175.00,142.64C151.84,154.88 136.01,162.93 108.89,164.21C100.30,164.61 89.99,165.16 81.49,164.45C72.93,163.73 64.19,161.66 56.08,158.86C37.44,152.44 20.33,139.29 10.22,122.22C-4.10,98.03 -3.30,62.13 13.22,39.16C18.49,31.84 27.72,22.00 35.19,17.01C62.18,-1.03 105.99,-3.91 136.29,5.77C148.05,9.53 161.82,15.12 170.94,23.50Z"/></g></g>
    <g transform="translate(500,500) rotate(0) translate(0,-254) scale(0.37) translate(-577.00,-170)"><g transform="translate(500,12)"><path d="M0,0L34,0L132.75,122.5L132.75,0L154,0L154,158L119.9,158L22,36.5L22,158L0,158Z"/></g></g>
    <g transform="translate(500,500) rotate(23.309) translate(0,-254) scale(0.37) translate(-710.50,-170)"><g transform="translate(694,12)"><path d="M0,0L33,0L33,158L0,158Z"/></g></g>
    <g transform="translate(500,500) rotate(46.206) translate(0,-254) scale(0.37) translate(-821.50,-170)"><g transform="translate(750,12)"><path d="M0,0L143,0L143,17.5L88,17.5L88,158L55,158L55,17.5L0,17.5Z"/></g></g>
    <g transform="translate(500,500) rotate(72.434) translate(0,-254) scale(0.37) translate(-980.00,-170)"><g transform="translate(919,12)"><path d="M0,0L122,0L122,17.5L33,17.5L33,69L92,69L92,87L33,87L33,140.5L122,140.5L122,158L0,158Z"/></g></g>
  </g>
</svg>
